<mxfile host="65bd71144e">
    <diagram id="p1q4XZiQ92KaJjp30xhn" name="Page-1">
        <mxGraphModel dx="1247" dy="995" grid="0" gridSize="10" guides="1" tooltips="1" connect="1" arrows="1" fold="1" page="1" pageScale="1" pageWidth="1169" pageHeight="827" background="#FFFFFF" math="0" shadow="0">
            <root>
                <mxCell id="0"/>
                <mxCell id="1" parent="0"/>
                <mxCell id="8" style="edgeStyle=none;html=1;exitX=0.5;exitY=0;exitDx=0;exitDy=0;fontColor=#000000;" parent="1" source="4" edge="1">
                    <mxGeometry relative="1" as="geometry">
                        <mxPoint x="117.29271104600684" y="163.3064541286892" as="targetPoint"/>
                    </mxGeometry>
                </mxCell>
                <mxCell id="9" style="edgeStyle=none;html=1;exitX=0.25;exitY=0;exitDx=0;exitDy=0;fontColor=#000000;startArrow=none;" parent="1" source="10" edge="1">
                    <mxGeometry relative="1" as="geometry">
                        <mxPoint x="100.31740993923609" y="187.99781968858497" as="targetPoint"/>
                    </mxGeometry>
                </mxCell>
                <mxCell id="4" value="&lt;h1 style=&quot;font-size: 36px&quot;&gt;&lt;font color=&quot;#000000&quot; style=&quot;font-size: 36px&quot;&gt;&lt;u&gt;MVP MoSCoW Analysis Model&lt;/u&gt;&lt;/font&gt;&lt;/h1&gt;&lt;span style=&quot;color: rgba(0 , 0 , 0 , 0) ; font-family: monospace ; font-size: 36px&quot;&gt;%3CmxGraphModel%3E%3Croot%3E%3CmxCell%20id%3D%220%22%2F%3E%3CmxCell%20id%3D%221%22%20parent%3D%220%22%2F%3E%3CmxCell%20id%3D%222%22%20value%3D%22%26lt%3Bh1%26gt%3B%26lt%3Bfont%20color%3D%26quot%3B%23000000%26quot%3B%26gt%3BPLAN%26lt%3B%2Ffont%26gt%3B%26lt%3B%2Fh1%26gt%3B%22%20style%3D%22text%3Bhtml%3D1%3BstrokeColor%3Dnone%3BfillColor%3Dnone%3Bspacing%3D5%3BspacingTop%3D-20%3BwhiteSpace%3Dwrap%3Boverflow%3Dhidden%3Brounded%3D0%3B%22%20vertex%3D%221%22%20parent%3D%221%22%3E%3CmxGeometry%20x%3D%2299%22%20y%3D%2235%22%20width%3D%22190%22%20height%3D%22120%22%20as%3D%22geometry%22%2F%3E%3C%2FmxCell%3E%3C%2Froot%3E%3C%2FmxGraphModel%3E&lt;/span&gt;" style="text;html=1;strokeColor=none;fillColor=none;spacing=5;spacingTop=-20;whiteSpace=wrap;overflow=hidden;rounded=0;" parent="1" vertex="1">
                    <mxGeometry x="300.75" y="27" width="546" height="81" as="geometry"/>
                </mxCell>
                <mxCell id="6" style="edgeStyle=none;html=1;exitX=0.5;exitY=0;exitDx=0;exitDy=0;fontColor=#000000;" parent="1" source="5" edge="1">
                    <mxGeometry relative="1" as="geometry">
                        <mxPoint x="878.0951877170137" y="198.80026245117188" as="targetPoint"/>
                    </mxGeometry>
                </mxCell>
                <mxCell id="5" value="&lt;h1&gt;&lt;font color=&quot;#000000&quot;&gt;STREACH GOALS&lt;/font&gt;&lt;/h1&gt;" style="text;html=1;strokeColor=none;fillColor=none;spacing=5;spacingTop=-20;whiteSpace=wrap;overflow=hidden;rounded=0;" parent="1" vertex="1">
                    <mxGeometry x="465" y="386" width="239" height="43" as="geometry"/>
                </mxCell>
                <mxCell id="7" value="" style="endArrow=none;html=1;fontColor=#000000;" parent="1" edge="1">
                    <mxGeometry width="50" height="50" relative="1" as="geometry">
                        <mxPoint y="239" as="sourcePoint"/>
                        <mxPoint x="1161" y="219" as="targetPoint"/>
                        <Array as="points">
                            <mxPoint x="20" y="219"/>
                        </Array>
                    </mxGeometry>
                </mxCell>
                <mxCell id="13" style="edgeStyle=none;html=1;" edge="1" parent="1" source="10">
                    <mxGeometry relative="1" as="geometry">
                        <mxPoint x="573.75" y="907.6000366210938" as="targetPoint"/>
                    </mxGeometry>
                </mxCell>
                <mxCell id="10" value="&lt;span style=&quot;color: rgb(0 , 0 , 0) ; font-size: 21px&quot;&gt;&lt;font style=&quot;font-size: 21px&quot;&gt;&lt;b&gt;&amp;nbsp; &amp;nbsp; &amp;nbsp; &amp;nbsp; &amp;nbsp; &amp;nbsp; &amp;nbsp; &amp;nbsp; &amp;nbsp; &amp;nbsp; &amp;nbsp; &amp;nbsp; &amp;nbsp; &amp;nbsp; &amp;nbsp; &amp;nbsp; &amp;nbsp; &amp;nbsp; &amp;nbsp; &amp;nbsp; &amp;nbsp; &amp;nbsp; &amp;nbsp; &amp;nbsp; &amp;nbsp; &amp;nbsp; &amp;nbsp; &amp;nbsp; &amp;nbsp; &amp;nbsp;&amp;nbsp;&lt;u&gt;Intergrated funny cat ERROR 404&amp;nbsp; &amp;nbsp; &amp;nbsp;app.&lt;/u&gt;&amp;nbsp;&amp;nbsp;&lt;br&gt;Must have:&amp;nbsp;&lt;/b&gt;&lt;/font&gt;&lt;/span&gt;&lt;ul style=&quot;color: rgb(0 , 0 , 0) ; font-size: 21px&quot;&gt;&lt;li&gt;&lt;font style=&quot;font-size: 21px&quot;&gt;One-page app with one button that changes the cat photo.&lt;/font&gt;&lt;/li&gt;&lt;li&gt;&lt;font style=&quot;font-size: 21px&quot;&gt;App generates a random cat photo which is displayed on the screen.&lt;/font&gt;&lt;/li&gt;&lt;/ul&gt;&lt;span style=&quot;color: rgb(0 , 0 , 0) ; font-size: 21px&quot;&gt;&lt;font style=&quot;font-size: 21px&quot;&gt;&lt;b&gt;Should Have&lt;/b&gt;&lt;br&gt;&lt;ul&gt;&lt;li&gt;&lt;span style=&quot;color: rgb(0 , 0 , 0) ; font-size: 21px&quot;&gt;&lt;font style=&quot;font-size: 21px&quot;&gt;Should have CSS added&lt;/font&gt;&lt;/span&gt;&lt;/li&gt;&lt;li&gt;&lt;span style=&quot;color: rgb(0 , 0 , 0) ; font-size: 21px&quot;&gt;&lt;font style=&quot;font-size: 21px&quot;&gt;Should have a theme and a wire frame created&lt;/font&gt;&lt;/span&gt;&lt;/li&gt;&lt;/ul&gt;&lt;br&gt;&lt;b&gt;Could-Have&lt;/b&gt;&lt;br&gt;&lt;ul&gt;&lt;li&gt;&lt;span style=&quot;color: rgb(0 , 0 , 0)&quot;&gt;Have a second button that allows the user to go back and another botton which allows them to change the photo&lt;/span&gt;&lt;/li&gt;&lt;/ul&gt;&lt;b&gt;WIll-Not-Have&lt;/b&gt;&lt;br&gt;&lt;ul&gt;&lt;li&gt;It will not have mulitple APIs&lt;/li&gt;&lt;li&gt;It will not be too serious&lt;/li&gt;&lt;li&gt;Only one photo will be displayed at each time&lt;/li&gt;&lt;/ul&gt;&lt;/font&gt;&lt;/span&gt;" style="rounded=1;whiteSpace=wrap;html=1;fillColor=#cdeb8b;strokeColor=#36393d;align=left;" parent="1" vertex="1">
                    <mxGeometry x="41" y="108" width="1065.5" height="689" as="geometry"/>
                </mxCell>
                <mxCell id="11" value="" style="edgeStyle=none;html=1;exitX=0.25;exitY=0;exitDx=0;exitDy=0;fontColor=#000000;endArrow=none;" parent="1" source="4" target="10" edge="1">
                    <mxGeometry relative="1" as="geometry">
                        <mxPoint x="100.31740993923609" y="187.99781968858497" as="targetPoint"/>
                        <mxPoint x="530.75" y="43" as="sourcePoint"/>
                    </mxGeometry>
                </mxCell>
                <mxCell id="12" style="edgeStyle=none;html=1;exitX=0.5;exitY=1;exitDx=0;exitDy=0;entryX=0.75;entryY=1;entryDx=0;entryDy=0;fontColor=#000000;" parent="1" source="4" target="4" edge="1">
                    <mxGeometry relative="1" as="geometry"/>
                </mxCell>
                <mxCell id="14" value="dd" style="rounded=1;whiteSpace=wrap;html=1;fillColor=#cdeb8b;strokeColor=#36393d;align=left;" vertex="1" parent="1">
                    <mxGeometry x="38" y="877" width="1088" height="325" as="geometry"/>
                </mxCell>
                <mxCell id="16" value="&lt;h1&gt;&lt;span style=&quot;font-weight: normal&quot;&gt;&lt;font color=&quot;#080808&quot; style=&quot;font-size: 36px&quot;&gt;USER STORY&lt;/font&gt;&lt;/span&gt;&lt;/h1&gt;&lt;div&gt;&lt;span style=&quot;font-weight: normal&quot;&gt;&lt;font color=&quot;#080808&quot; size=&quot;3&quot;&gt;&lt;br&gt;&lt;/font&gt;&lt;/span&gt;&lt;/div&gt;&lt;div&gt;&lt;span style=&quot;font-weight: normal&quot;&gt;&lt;font color=&quot;#080808&quot; size=&quot;3&quot;&gt;Aa an E-Commerce Platform User, I want to enjoy my shopping experience and be engaged even when I encounter a 404 Error on the website.&lt;/font&gt;&lt;/span&gt;&lt;/div&gt;&lt;div&gt;&lt;span style=&quot;font-weight: normal&quot;&gt;&lt;br&gt;&lt;/span&gt;&lt;/div&gt;" style="text;html=1;strokeColor=none;fillColor=none;spacing=5;spacingTop=-20;whiteSpace=wrap;overflow=hidden;rounded=0;" vertex="1" parent="1">
                    <mxGeometry x="90" y="903" width="991" height="230" as="geometry"/>
                </mxCell>
            </root>
        </mxGraphModel>
    </diagram>
</mxfile>